<svg width="30.000000" height="30.000000" viewBox="0 0 30 30" fill="none" xmlns="http://www.w3.org/2000/svg" xmlns:xlink="http://www.w3.org/1999/xlink">
	<rect id="facebook-rect logo" rx="0.000000" width="29.000000" height="29.000000" transform="translate(0.500000 0.500000)" fill="#FFFFFF" fill-opacity="0"/>
	<g clip-path="url(#clip12_224)">
		<path id="Vector" d="M5.47 0C2.44 0 0 2.44 0 5.47L0 24.52C0 27.55 2.44 30 5.47 30L15.79 30L15.79 18.27L12.69 18.27L12.69 14.04L15.79 14.04L15.79 10.44C15.79 7.6 17.63 5 21.85 5C23.56 5 24.82 5.16 24.82 5.16L24.72 9.11C24.72 9.11 23.43 9.1 22.03 9.1C20.5 9.1 20.26 9.8 20.26 10.96L20.26 14.04L24.84 14.04L24.64 18.27L20.26 18.27L20.26 30L24.52 30C27.55 30 30 27.55 30 24.52L30 5.47C30 2.44 27.55 3.05e-5 24.52 3.05e-5L5.47 3.05e-5L5.47 0Z" fill="#000000" fill-opacity="1.000000" fill-rule="nonzero"/>
	</g>
</svg>
