<svg width="172.049988" height="74.000000" viewBox="0 0 172.05 74" fill="none" xmlns="http://www.w3.org/2000/svg" xmlns:xlink="http://www.w3.org/1999/xlink">
	<rect rx="0.000000" width="171.050003" height="73.000000" transform="translate(0.500000 0.500000)" fill="#FFFFFF" fill-opacity="0"/>
	<g clip-path="url(#clip17_297)">
		<path d="M12.53 65.93C13.6 64.78 14.86 63.48 15.61 62.87C15.4 62.85 15.06 62.81 14.7 62.75C13.92 63.47 12.92 64.51 12.02 65.47C10.89 66.69 9.95 67.76 9.95 67.76C9.94 67.77 9.93 67.79 9.92 67.8C9.18 68.01 7.92 68.35 7.08 68.58C5.84 68.93 4.73 68.84 4.73 69.65C4.73 69.65 3.45 70.34 3.75 71.37C3.75 71.37 6.32 69.31 8.53 68.96C8.53 68.96 7.18 69.84 7.3 71.02C7.3 71.02 9.12 68.31 11.24 69.96C11.24 69.96 10.29 68.67 10.68 67.97C11.02 67.58 11.72 66.79 12.53 65.93ZM8.45 33.88C8.34 33.93 8.22 33.95 8.1 33.95C7.73 33.95 7.37 33.72 7.22 33.35C7.21 33.32 7.19 33.28 7.18 33.25L6.9 33.34C7.14 34.02 7.85 34.4 8.48 34.18C8.64 34.12 8.79 34.03 8.9 33.93C9.25 33.6 9.39 33.06 9.22 32.55L8.58 32.77C8.62 32.86 8.64 32.96 8.64 33.07C8.64 33.17 8.63 33.25 8.59 33.34L8.88 33.51C8.83 33.59 8.77 33.67 8.7 33.73C8.63 33.79 8.54 33.84 8.45 33.88ZM34.4 31.8L21.73 34.89L21.73 34.88L21.74 34.89L46.48 24.19L26.09 26.69L37.01 18.72L25.31 23.28L27.08 19.74L18.71 25.76L18.64 25.63L30.5 0L11.21 22.82L11.09 10.38L4.01 27.01L3.64 22.11L0.16 34.87L0.16 34.86L0.16 34.87C0.16 34.87 0.63 34.52 1.26 34.33C1.31 34.32 1.37 34.3 1.42 34.29C1.42 34.29 1.43 34.28 1.44 34.28C1.49 34.27 1.54 34.26 1.59 34.25C1.6 34.25 1.6 34.25 1.61 34.25C1.67 34.24 1.72 34.23 1.77 34.23L1.77 34.22C1.83 34.22 1.88 34.21 1.93 34.21L1.97 34.21C2.02 34.21 2.07 34.21 2.13 34.21C2.13 34.21 2.14 34.21 2.15 34.21C2.2 34.21 2.25 34.22 2.3 34.23C2.31 34.23 2.31 34.23 2.32 34.23C2.38 34.24 2.43 34.25 2.48 34.26C2.49 34.26 2.51 34.27 2.51 34.27C2.57 34.28 2.62 34.3 2.68 34.32C3.87 34.75 4.89 34.32 4.89 34.32C4.89 34.32 6.01 35.04 6.01 35.64L6.01 35.64L6.01 35.64C6.01 35.64 4.53 35.73 4.53 35.08C4.53 35.08 2.64 34.41 0 35.39L5.57 37.78C5.57 37.76 5.28 36.72 5.6 36.36C5.7 36.23 5.88 36.19 6.16 36.29C6.26 36.32 6.34 36.31 6.38 36.27C6.82 35.82 4.71 31.94 4.71 31.94C4.71 31.94 2.82 31.75 1.19 33.46C1.08 33.58 0.97 33.7 0.86 33.83L0.86 33.82L0.86 33.83C1.03 33.54 1.56 32.7 2.44 31.96C2.97 31.52 3.64 31.12 4.43 30.9C4.64 30.38 4.37 30.71 4.81 30.44C4.82 30.44 4.82 30.44 4.82 30.44C5.03 29.07 5.8 25.54 8.48 22.52C8.66 22.32 8.84 22.12 9.04 21.93C9.04 21.93 8.35 23.22 8.35 24.11C8.37 24.09 9.05 23.08 9.99 22.15L9.99 22.14C9.99 22.14 9.97 22.16 9.96 22.18C9.79 22.56 8.51 25.28 8.64 26.07C8.65 26.08 8.65 26.08 8.65 26.09L11.23 23.73C11.23 23.73 11.22 23.74 11.22 23.74C11.14 23.84 8.8 27.01 8.57 28.1L8.57 28.11L12.47 25.32L12.47 25.32C12.45 25.35 11.97 26.01 11.77 26.38C11.63 26.64 11.61 26.73 11.61 26.76L11.62 26.78L13.72 25.88C13.72 25.88 13.63 25.99 13.48 26.14L12.7 26.94L12.5 27.14L11.08 28.58L11.06 28.61L9.97 29.71L9.28 30.42C9.28 30.42 8.71 31.01 8.64 31.32C8.58 31.62 8.9 31.8 8.9 31.8L8.89 31.8C9.18 31.96 9.42 32.21 9.55 32.51C9.63 32.69 9.67 32.89 9.67 33.1C9.67 33.51 9.5 33.89 9.22 34.16C8.94 34.43 8.55 34.6 8.12 34.6C7.73 34.6 7.38 34.46 7.1 34.23C7.15 34.3 7.92 35.26 9.33 34.51L11.07 33.24L11.15 33.18L12.95 31.86C13.38 32.37 13.78 32.97 14.14 33.66C13.07 34.67 11.25 36.44 9.42 38.37C8.34 39.52 7.25 40.73 6.33 41.87L6.98 38.82L7.03 38.57C7.03 38.57 7.03 38.57 7.03 38.57C7.02 38.57 7.02 38.57 7.01 38.58C7.01 38.58 7 38.59 7 38.59C7 38.59 6.99 38.59 6.98 38.6C6.98 38.6 6.98 38.6 6.98 38.61C6.97 38.61 6.96 38.62 6.95 38.62C6.95 38.62 6.95 38.63 6.93 38.64C6.93 38.64 6.92 38.65 6.91 38.65C6.9 38.66 6.9 38.67 6.89 38.67C6.88 38.68 6.87 38.69 6.86 38.69C6.85 38.7 6.84 38.71 6.83 38.72C6.82 38.72 6.81 38.74 6.8 38.74C6.79 38.75 6.78 38.76 6.77 38.77C6.76 38.78 6.75 38.79 6.73 38.8C6.72 38.81 6.71 38.82 6.7 38.83C6.69 38.84 6.67 38.85 6.66 38.87C6.65 38.87 6.64 38.88 6.62 38.89C6.61 38.91 6.59 38.92 6.58 38.94C6.57 38.95 6.55 38.96 6.54 38.97C6.52 38.99 6.5 39 6.49 39.02C6.48 39.03 6.47 39.04 6.45 39.05C6.44 39.07 6.42 39.09 6.39 39.11C6.38 39.12 6.37 39.13 6.36 39.14C6.35 39.16 6.33 39.17 6.32 39.18C6.32 39.18 6.32 39.18 6.32 39.18C6.3 39.2 6.28 39.23 6.25 39.25C6.24 39.26 6.22 39.28 6.21 39.29C6.19 39.31 6.17 39.33 6.15 39.35C6.13 39.37 6.11 39.39 6.1 39.4C6.08 39.42 6.07 39.44 6.06 39.45C6.05 39.46 6.04 39.47 6.03 39.47C6.03 39.48 6.03 39.48 6.02 39.49C6.01 39.5 6 39.51 5.98 39.53C5.97 39.55 5.95 39.56 5.93 39.58C5.93 39.59 5.93 39.6 5.92 39.6C5.91 39.61 5.91 39.61 5.9 39.62C5.89 39.63 5.88 39.64 5.86 39.66C5.84 39.69 5.82 39.71 5.8 39.73C5.78 39.76 5.76 39.77 5.74 39.8C5.72 39.83 5.69 39.85 5.67 39.88C5.65 39.9 5.63 39.92 5.61 39.95C5.59 39.98 5.57 40.01 5.54 40.03C5.52 40.06 5.5 40.08 5.48 40.11C5.46 40.14 5.44 40.17 5.41 40.2C5.39 40.22 5.37 40.25 5.35 40.27C5.32 40.31 5.3 40.34 5.27 40.38C5.25 40.41 5.23 40.43 5.22 40.45C5.18 40.49 5.15 40.54 5.12 40.58C5.1 40.6 5.09 40.62 5.08 40.63C5.03 40.7 4.98 40.77 4.93 40.84L4.93 40.84C4.88 40.91 4.84 40.98 4.79 41.04C4.78 41.06 4.77 41.08 4.75 41.11C4.72 41.16 4.68 41.21 4.65 41.26C4.63 41.29 4.62 41.31 4.6 41.34C4.57 41.39 4.54 41.43 4.5 41.48C4.49 41.52 4.47 41.54 4.45 41.57C4.43 41.62 4.39 41.67 4.36 41.73C4.34 41.76 4.32 41.79 4.31 41.82C4.28 41.87 4.25 41.92 4.21 41.98C4.2 42 4.18 42.04 4.16 42.07C4.13 42.13 4.1 42.18 4.07 42.24C4.05 42.27 4.03 42.3 4.02 42.34C3.87 42.6 3.74 42.87 3.59 43.17L3.59 43.17L2.87 43.29C3.02 42.92 3.16 42.59 3.31 42.27L2.14 43.92L3.31 43.8C2.31 46.1 1.58 49.11 1.58 53.39L2.53 52.79C3.37 57.57 7.32 59.68 7.32 59.68L7.31 59.65C9.48 61.07 12.13 62.06 15.04 62.46C15.44 62.51 15.77 62.54 15.85 62.54C15.85 62.54 15.85 62.54 15.85 62.54C15.9 62.55 15.95 62.56 16 62.56C17.58 62.7 19.11 62.64 20.58 62.42C20.57 62.48 20.57 62.54 20.57 62.59C20.57 63.54 21.1 64.32 21.77 64.38C20.39 66.73 19.27 69.84 19.27 69.85C19.22 70 19.11 70.26 18.99 70.34C18.66 70.42 18.63 70.43 18.25 70.55L18.26 70.55C18.13 70.42 17.04 70.22 15.93 70.64C15.94 70.64 15.94 70.64 15.94 70.65C15.32 70.92 14.71 71.42 14.28 72.26C14.73 71.89 15.57 71.3 16.26 71.38C15.45 71.85 14.05 72.73 13.89 74C13.89 74 18.75 70.58 21.15 71.21C21.15 71.21 20.8 71.61 21.62 73.08L22 71.71C22.43 70.38 20.77 70.19 20.07 70.16C20.07 70.15 20.07 70.15 20.07 70.14C20.07 70.14 20.15 69.93 20.28 69.58C20.7 68.51 21.66 66.16 22.71 64.48C22.73 64.44 22.74 64.41 22.75 64.37L22.55 64.1C22.56 64.1 22.7 63.95 22.77 63.84C22.91 63.62 23.11 63.24 23.11 62.75C23.11 62.36 23.01 61.87 22.74 61.26L23.36 60.97C23.39 61.05 23.43 61.12 23.46 61.2C23.47 61.22 23.48 61.25 23.49 61.27C23.51 61.32 23.53 61.37 23.54 61.42C23.55 61.44 23.56 61.47 23.57 61.5C23.59 61.55 23.6 61.6 23.62 61.65C23.63 61.67 23.64 61.69 23.64 61.71L27.2 60.64L26.41 59.99L26.4 59.99L26.37 59.95L26.35 59.94L12.89 47.68C12.9 47.68 12.9 47.69 12.9 47.69L12.9 47.68C16.64 49.5 21 51.62 28.41 55.05C35.7 58.41 40.32 60.37 42.7 61.34C42.72 61.35 42.74 61.36 42.76 61.37L42.76 61.37C43.11 61.51 43.4 61.63 43.65 61.73C44.16 61.93 44.64 62.12 44.67 62.13C44.71 62.11 44.76 62.09 44.8 62.07L17.59 43.42L34.4 31.8ZM15.57 37.55L11.52 40.64L14.43 34.24L14.43 34.23C14.89 35.21 15.28 36.34 15.58 37.55L15.57 37.55ZM30.06 59.62L30.16 60.11L30.16 60.11L34.9 62.91L36.1 63.6L35.44 61.92C39.35 63.07 42.54 63.13 44.65 62.14C44.65 62.14 44.65 62.14 44.65 62.14C40.96 63.23 31.82 60.15 30.06 59.62Z" fill="#DC0D15" fill-opacity="1.000000" fill-rule="nonzero"/>
		<path d="M4.53 35.08C4.53 35.73 6.01 35.64 6.01 35.64C6.01 35.04 4.89 34.32 4.89 34.32C4.89 34.32 3.87 34.75 2.67 34.32C2.19 34.15 1.69 34.2 1.26 34.33C0.7 34.71 0 35.39 0 35.39C2.64 34.41 4.53 35.08 4.53 35.08ZM14.43 34.24L11.52 40.64L15.57 37.55C15.28 36.34 14.89 35.22 14.43 34.24ZM44.67 62.13C44.67 62.13 35.56 58.71 12.89 47.68L26.4 59.99L26.41 59.99C27.62 59.48 28.47 59.13 30.16 60.11L30.06 59.62C31.82 60.15 40.99 63.24 44.67 62.13ZM22.74 61.26C23.01 61.87 23.11 62.36 23.11 62.75C23.1 63.24 22.91 63.62 22.77 63.84C22.7 63.95 22.56 64.1 22.55 64.1L22.96 64.66C23 64.63 23.79 64.03 23.79 62.75C23.79 62.25 23.67 61.65 23.36 60.97L22.74 61.26ZM14.6 62.74C15.25 62.84 15.83 62.89 15.83 62.89L15.86 62.55C15.86 62.55 15.29 62.5 14.66 62.4L14.6 62.74ZM14.14 33.66C13.78 32.97 13.38 32.37 12.95 31.86L9.33 34.52C7.87 35.29 7.1 34.23 7.1 34.23C7.37 34.46 7.72 34.6 8.12 34.6C8.98 34.6 9.67 33.92 9.67 33.1C9.67 32.89 9.63 32.69 9.55 32.52C9.42 32.21 9.18 31.96 8.89 31.8L8.9 31.8C8.9 31.8 8.58 31.62 8.64 31.32C8.71 31.01 9.28 30.42 9.28 30.42L9.28 30.42L11.06 28.61L11.08 28.58L12.7 26.94L13.48 26.14C13.63 25.99 13.71 25.88 13.71 25.88L11.61 26.78C11.61 26.78 11.57 26.75 11.77 26.38C11.98 26.01 12.47 25.32 12.47 25.32L8.56 28.11C8.79 27.01 11.23 23.73 11.23 23.73L8.65 26.09C8.48 25.27 9.98 22.15 9.98 22.15C9.04 23.09 8.35 24.12 8.35 24.12C8.35 23.22 9.04 21.93 9.04 21.93C5.91 25.06 5.04 28.98 4.82 30.44C4.36 30.72 4.64 30.37 4.43 30.9C2.32 31.49 1.13 33.36 0.86 33.83C2.56 31.73 4.71 31.94 4.71 31.94C4.71 31.94 7.27 36.67 6.16 36.29C5.04 35.9 5.57 37.78 5.57 37.78L3.48 36.88C3.82 37.56 4.5 39.18 4.11 40.85C3.68 41.51 3.25 42.31 2.87 43.29L3.59 43.17C3.73 42.87 3.87 42.6 4.01 42.34C4.03 42.3 4.05 42.27 4.07 42.24C4.1 42.18 4.13 42.13 4.16 42.07C4.18 42.04 4.2 42.01 4.21 41.97C4.24 41.92 4.27 41.87 4.3 41.82C4.32 41.79 4.34 41.76 4.36 41.72C4.39 41.67 4.42 41.62 4.45 41.57C4.47 41.54 4.49 41.52 4.5 41.49C4.53 41.44 4.57 41.39 4.6 41.34C4.61 41.31 4.63 41.29 4.65 41.26C4.68 41.21 4.72 41.16 4.75 41.11C4.77 41.08 4.78 41.06 4.79 41.04C4.84 40.97 4.88 40.91 4.93 40.85C4.93 40.84 4.93 40.84 4.93 40.84C4.98 40.77 5.03 40.7 5.07 40.64C5.09 40.62 5.1 40.6 5.12 40.58C5.15 40.54 5.18 40.5 5.21 40.45C5.23 40.42 5.25 40.41 5.27 40.38C5.29 40.35 5.32 40.31 5.35 40.27C5.37 40.25 5.39 40.23 5.4 40.2C5.43 40.17 5.46 40.14 5.48 40.11C5.5 40.08 5.52 40.06 5.54 40.04C5.57 40.01 5.59 39.98 5.61 39.95C5.63 39.93 5.65 39.9 5.67 39.88C5.69 39.85 5.72 39.83 5.74 39.8C5.76 39.78 5.78 39.76 5.8 39.74C5.82 39.71 5.84 39.69 5.86 39.66C5.88 39.64 5.9 39.62 5.92 39.6C5.94 39.58 5.96 39.55 5.98 39.53C6 39.51 6.02 39.49 6.03 39.47C6.06 39.45 6.08 39.43 6.1 39.41C6.11 39.39 6.13 39.37 6.15 39.35C6.17 39.33 6.19 39.31 6.21 39.29C6.22 39.28 6.24 39.26 6.25 39.25C6.27 39.23 6.3 39.2 6.32 39.18C6.33 39.17 6.34 39.16 6.36 39.15C6.39 39.11 6.42 39.08 6.45 39.05C6.47 39.04 6.48 39.03 6.49 39.02C6.5 39 6.52 38.99 6.54 38.97C6.55 38.96 6.57 38.95 6.58 38.94C6.59 38.92 6.61 38.91 6.62 38.89C6.64 38.88 6.65 38.87 6.66 38.87C6.67 38.85 6.69 38.84 6.7 38.83C6.71 38.82 6.72 38.81 6.73 38.8C6.75 38.79 6.76 38.78 6.77 38.77C6.78 38.76 6.79 38.75 6.8 38.74C6.81 38.74 6.82 38.72 6.83 38.72C6.84 38.71 6.85 38.7 6.86 38.69C6.87 38.69 6.88 38.68 6.89 38.67C6.9 38.67 6.9 38.66 6.91 38.65C6.92 38.65 6.93 38.64 6.93 38.64C6.94 38.64 6.95 38.62 6.95 38.62C6.96 38.62 6.97 38.61 6.98 38.61C6.98 38.6 6.98 38.6 6.98 38.6C6.99 38.59 7 38.59 7 38.59C7 38.59 7.01 38.58 7.01 38.58C7.02 38.57 7.02 38.57 7.03 38.57C7.03 38.57 7.03 38.57 7.03 38.57L6.98 38.82L6.33 41.87C8.79 38.82 12.43 35.28 14.14 33.66ZM6.9 33.34L7.18 33.25C7.19 33.28 7.21 33.32 7.22 33.35C7.37 33.72 7.73 33.95 8.1 33.95C8.22 33.95 8.34 33.93 8.45 33.88C8.63 33.81 8.78 33.67 8.88 33.51L8.59 33.34C8.63 33.26 8.64 33.17 8.64 33.07C8.64 32.96 8.62 32.86 8.58 32.77L9.22 32.55C9.45 33.23 9.12 33.96 8.48 34.18C7.84 34.4 7.13 34.03 6.9 33.34Z" fill="#000000" fill-opacity="1.000000" fill-rule="nonzero"/>
		<path d="M66.21 38.47C65.78 38.35 65.13 38.29 64.29 38.29L62.47 38.29L62.47 48.6L62.66 48.47L64.16 47.41L64.21 47.37L64.21 44.45L64.79 44.45C65.85 44.45 66.71 44.17 67.34 43.62C67.97 43.06 68.29 42.3 68.29 41.36C68.29 40.48 67.99 39.74 67.4 39.16C67.06 38.82 66.66 38.59 66.21 38.47ZM64.69 42.96L64.21 42.96L64.21 39.8L64.75 39.8C66.13 39.8 66.82 40.31 66.82 41.33C66.82 42.42 66.11 42.96 64.69 42.96ZM75.92 44.2C76.52 44.03 77.02 43.71 77.41 43.23C77.83 42.7 78.04 42.06 78.04 41.33C78.04 40.4 77.7 39.63 77.03 39.06C76.42 38.55 75.44 38.29 74.1 38.29L72.22 38.29L72.22 48.6L72.41 48.47L73.91 47.41L73.97 47.37L73.97 44.42L74.05 44.42L76.86 48.44L76.92 48.54L77.03 48.47L78.23 47.6L78.33 47.52L78.26 47.42L75.92 44.2ZM73.97 42.96L73.97 42.86L73.97 39.95L73.97 39.8L74.51 39.8C75.89 39.8 76.58 40.31 76.58 41.33C76.58 42.42 75.87 42.96 74.45 42.96L73.97 42.96ZM49.71 38.59C49.12 38.39 48.31 38.29 47.3 38.29L45.09 38.29L45.09 48.48L47.28 48.48C48.29 48.48 49.09 48.39 49.65 48.2C50.25 48.01 50.84 47.67 51.39 47.19C52.47 46.23 53.03 44.95 53.03 43.39C53.03 41.84 52.5 40.56 51.45 39.6C50.93 39.13 50.35 38.79 49.71 38.59ZM50.2 45.94C49.86 46.25 49.46 46.48 49.03 46.62C48.6 46.76 48.05 46.83 47.39 46.83L46.84 46.83L46.84 39.95L47.39 39.95C48.63 39.95 49.58 40.25 50.21 40.82C50.91 41.48 51.26 42.34 51.26 43.39C51.26 44.43 50.91 45.28 50.2 45.94ZM38.72 39.76C39.37 39.76 40.01 39.94 40.63 40.31L40.73 40.37L40.79 40.26L41.52 39.01L41.58 38.9L41.48 38.84C40.63 38.35 39.73 38.1 38.83 38.1C37.16 38.1 35.78 38.72 34.73 39.96C33.88 40.98 33.44 42.14 33.44 43.44C33.44 44.87 33.96 46.13 34.98 47.14C36.01 48.16 37.26 48.67 38.71 48.67C39.67 48.67 40.6 48.42 41.48 47.92L41.54 47.88L41.54 47.78L41.53 47.75L40.79 46.48L40.73 46.37L40.62 46.45C40.41 46.58 40.21 46.68 40.03 46.76C39.67 46.93 39.24 47.01 38.73 47.01C37.75 47.01 36.91 46.66 36.23 45.97C35.55 45.28 35.21 44.42 35.21 43.42C35.21 42.4 35.55 41.52 36.23 40.82C36.9 40.11 37.74 39.76 38.72 39.76ZM153.67 39.95L153.71 39.91L155.09 38.5L155.3 38.29L149.39 38.29L149.39 48.48L153.71 48.48L153.74 48.45L155.1 47.04L155.3 46.83L151.14 46.83L151.14 43.66L152.42 43.66L152.45 43.62L153.86 42.22L154.07 42L151.14 42L151.14 39.95L153.67 39.95ZM123.76 39.95L126.05 39.95L126.05 48.6L126.24 48.47L127.74 47.41L127.8 47.37L127.8 39.95L130.08 39.95L130.08 38.29L123.76 38.29L123.76 39.95ZM86.78 38.1C85.32 38.1 84.05 38.62 83.01 39.65C81.96 40.67 81.43 41.92 81.43 43.34C81.43 44.96 82.01 46.3 83.16 47.31C84.2 48.21 85.39 48.67 86.7 48.67C88.18 48.67 89.46 48.15 90.51 47.13C91.55 46.12 92.08 44.86 92.08 43.4C92.08 41.95 91.55 40.69 90.51 39.66C89.48 38.63 88.23 38.1 86.78 38.1ZM89.28 45.97C88.58 46.66 87.72 47.01 86.72 47.01C85.8 47.01 84.97 46.66 84.26 45.98C83.55 45.3 83.19 44.42 83.19 43.36C83.19 42.35 83.54 41.49 84.22 40.81C84.91 40.11 85.76 39.76 86.76 39.76C87.76 39.76 88.61 40.11 89.29 40.81C89.97 41.5 90.32 42.37 90.32 43.39C90.32 44.39 89.97 45.26 89.28 45.97ZM165.73 39.6C165.21 39.13 164.63 38.79 163.99 38.59C163.4 38.39 162.59 38.29 161.58 38.29L159.37 38.29L159.37 48.48L161.56 48.48C162.57 48.48 163.37 48.39 163.94 48.2C164.53 48.01 165.12 47.67 165.67 47.19C166.76 46.23 167.31 44.95 167.31 43.39C167.31 41.84 166.78 40.56 165.73 39.6ZM164.49 45.94C164.14 46.25 163.74 46.48 163.32 46.62C162.88 46.76 162.33 46.83 161.67 46.83L161.12 46.83L161.12 39.95L161.67 39.95C162.92 39.95 163.86 40.25 164.5 40.82C165.2 41.48 165.55 42.34 165.55 43.39C165.55 44.43 165.2 45.28 164.49 45.94ZM142.67 44.2C143.27 44.03 143.77 43.71 144.15 43.23C144.58 42.7 144.78 42.06 144.78 41.33C144.78 40.4 144.45 39.63 143.77 39.06C143.17 38.55 142.19 38.29 140.85 38.29L138.96 38.29L138.96 48.6L139.16 48.47L140.66 47.41L140.71 47.37L140.71 44.42L140.8 44.42L143.6 48.44L143.67 48.54L143.77 48.47L144.98 47.6L145.08 47.52L145.01 47.42L142.67 44.2ZM140.71 42.96L140.71 39.8L141.25 39.8C142.63 39.8 143.32 40.31 143.32 41.33C143.32 42.42 142.61 42.96 141.19 42.96L140.71 42.96ZM118.98 38.33L115.32 42.08L115.32 38.18L115.12 38.32L113.62 39.37L113.57 39.41L113.57 48.6L113.77 48.47L115.27 47.41L115.32 47.37L115.32 44.29L115.5 44.12L118.99 48.44L119.06 48.53L119.16 48.47L120.45 47.6L120.56 47.52L120.47 47.41L116.75 42.92L121.16 38.5L121.37 38.29L119.02 38.29L118.98 38.33ZM97.47 39.38L97.41 39.41L97.41 44.85C97.41 45.67 97.32 46.25 97.16 46.57C97 46.87 96.74 47.01 96.34 47.01C96.05 47.01 95.73 46.9 95.39 46.67L95.28 46.6L95.22 46.71L94.47 47.99L94.42 48.1L94.52 48.16C95.08 48.5 95.69 48.67 96.34 48.67C97.2 48.67 97.91 48.35 98.43 47.74C98.7 47.43 98.89 47.05 99.01 46.6C99.11 46.21 99.17 45.64 99.17 44.85L99.17 38.18L98.97 38.32L97.47 39.38ZM108.22 39.95L108.25 39.91L109.64 38.5L109.84 38.29L103.94 38.29L103.94 48.48L108.25 48.48L108.29 48.45L109.64 47.04L109.84 46.83L105.69 46.83L105.69 43.66L106.96 43.66L107 43.62L108.4 42.22L108.61 42L105.69 42L105.69 39.95L108.22 39.95Z" fill="#000000" fill-opacity="1.000000" fill-rule="nonzero"/>
		<path d="M170.26 41.66C169.28 41.66 168.48 40.86 168.48 39.88C168.48 38.89 169.28 38.1 170.26 38.1C171.25 38.1 172.05 38.89 172.05 39.88C172.05 40.86 171.25 41.66 170.26 41.66ZM170.26 38.37C169.42 38.37 168.75 39.03 168.75 39.88C168.75 40.71 169.42 41.39 170.26 41.39C171.1 41.39 171.78 40.71 171.78 39.88C171.78 39.03 171.1 38.37 170.26 38.37ZM170.75 40.91L170.22 40.1L169.87 40.1L169.87 40.91L169.58 40.91L169.58 38.86L170.41 38.86C170.76 38.86 171.08 39.11 171.08 39.49C171.08 39.94 170.67 40.09 170.56 40.09L171.1 40.91L170.75 40.91ZM170.41 39.12L169.87 39.12L169.87 39.84L170.41 39.84C170.59 39.84 170.78 39.7 170.78 39.49C170.78 39.26 170.59 39.12 170.41 39.12Z" fill="#000000" fill-opacity="1.000000" fill-rule="nonzero"/>
	</g>
</svg>
