<svg width="30.000000" height="30.000000" viewBox="0 0 30 30" fill="none" xmlns="http://www.w3.org/2000/svg" xmlns:xlink="http://www.w3.org/1999/xlink">
	<rect rx="0.000000" width="29.000000" height="29.000000" transform="translate(0.500000 0.500000)" fill="#FFFFFF" fill-opacity="0"/>
	<g clip-path="url(#clip12_230)">
		<path d="M15 11.42C14.29 11.42 13.6 11.63 13.01 12.03C12.42 12.42 11.97 12.98 11.7 13.63C11.43 14.28 11.36 15 11.49 15.69C11.63 16.39 11.97 17.02 12.47 17.52C12.97 18.02 13.61 18.36 14.3 18.5C14.99 18.64 15.71 18.57 16.36 18.29C17.02 18.02 17.57 17.57 17.97 16.98C18.36 16.39 18.57 15.7 18.57 15C18.57 14.05 18.19 13.14 17.52 12.47C16.85 11.8 15.94 11.42 15 11.42ZM23.35 8.68C23.16 8.22 22.89 7.8 22.54 7.45C22.19 7.1 21.77 6.82 21.31 6.64C19.9 6.09 16.56 6.21 15 6.21C13.43 6.21 10.09 6.08 8.68 6.64C8.22 6.82 7.8 7.1 7.45 7.45C7.1 7.8 6.83 8.22 6.64 8.68C6.09 10.08 6.21 13.44 6.21 14.99C6.21 16.55 6.09 19.9 6.65 21.31C6.83 21.77 7.1 22.19 7.45 22.54C7.8 22.89 8.22 23.17 8.68 23.35C10.09 23.9 13.44 23.78 15 23.78C16.56 23.78 19.9 23.91 21.31 23.35C21.77 23.17 22.19 22.89 22.54 22.54C22.89 22.19 23.17 21.77 23.35 21.31C23.91 19.91 23.78 16.55 23.78 15C23.78 13.44 23.91 10.09 23.35 8.68L23.35 8.68ZM15 20.49C13.91 20.49 12.85 20.16 11.94 19.56C11.04 18.96 10.34 18.1 9.92 17.1C9.51 16.09 9.4 14.99 9.61 13.92C9.82 12.86 10.34 11.88 11.11 11.11C11.88 10.34 12.86 9.82 13.92 9.61C14.99 9.4 16.09 9.51 17.1 9.92C18.1 10.34 18.96 11.04 19.56 11.94C20.16 12.85 20.49 13.91 20.49 15C20.49 15.72 20.35 16.43 20.07 17.1C19.79 17.76 19.39 18.37 18.88 18.88C18.37 19.39 17.76 19.79 17.1 20.07C16.43 20.35 15.72 20.49 15 20.49ZM20.71 10.56C20.46 10.56 20.21 10.48 20 10.34C19.79 10.2 19.62 10 19.53 9.76C19.43 9.53 19.41 9.27 19.45 9.02C19.5 8.78 19.63 8.55 19.81 8.37C19.98 8.19 20.21 8.07 20.46 8.02C20.71 7.97 20.97 7.99 21.2 8.09C21.44 8.19 21.64 8.35 21.78 8.56C21.92 8.77 21.99 9.02 21.99 9.27C21.99 9.44 21.96 9.61 21.9 9.76C21.83 9.92 21.74 10.06 21.62 10.18C21.5 10.3 21.36 10.4 21.21 10.46C21.05 10.52 20.88 10.56 20.72 10.56L20.71 10.56ZM26.78 0L3.21 0C2.36 0 1.54 0.33 0.94 0.94C0.33 1.54 0 2.36 0 3.21L0 26.78C0 27.63 0.33 28.45 0.94 29.05C1.54 29.66 2.36 30 3.21 30L26.78 30C27.63 30 28.45 29.66 29.05 29.05C29.66 28.45 30 27.63 30 26.78L30 3.21C30 2.36 29.66 1.54 29.05 0.94C28.45 0.33 27.63 0 26.78 0ZM25.63 19.41C25.55 21.13 25.16 22.65 23.9 23.9C22.65 25.15 21.13 25.55 19.42 25.63C17.65 25.73 12.35 25.73 10.58 25.63C8.86 25.55 7.35 25.15 6.09 23.9C4.84 22.65 4.44 21.13 4.36 19.41C4.26 17.65 4.26 12.34 4.36 10.58C4.45 8.86 4.83 7.34 6.09 6.09C7.35 4.84 8.87 4.44 10.58 4.36C12.35 4.26 17.65 4.26 19.42 4.36C21.13 4.45 22.65 4.84 23.9 6.09C25.15 7.35 25.55 8.87 25.63 10.58C25.73 12.35 25.73 17.64 25.63 19.41Z" fill="#000000" fill-opacity="1.000000" fill-rule="nonzero"/>
	</g>
</svg>
