<svg width="30.000000" height="30.000000" viewBox="0 0 30 30" fill="none" xmlns="http://www.w3.org/2000/svg" xmlns:xlink="http://www.w3.org/1999/xlink">
	<rect rx="0.000000" width="29.000000" height="29.000000" transform="translate(0.500000 0.500000)" fill="#FFFFFF" fill-opacity="0"/>
	<g clip-path="url(#clip12_226)">
		<path d="M26.78 0L3.21 0C1.43 0 0 1.43 0 3.21L0 26.78C0 28.56 1.43 30 3.21 30L26.78 30C28.56 30 30 28.56 30 26.78L30 3.21C30 1.43 28.56 0 26.78 0ZM23.51 10.63C23.52 10.82 23.52 11.01 23.52 11.2C23.52 17 19.1 23.69 11.02 23.69C8.53 23.69 6.22 22.97 4.28 21.72C4.64 21.77 4.98 21.78 5.34 21.78C7.39 21.78 9.28 21.08 10.79 19.9C8.86 19.86 7.24 18.6 6.68 16.86C7.36 16.96 7.97 16.96 8.67 16.78C6.66 16.37 5.15 14.6 5.15 12.46L5.15 12.41C5.73 12.74 6.42 12.94 7.13 12.97C6.53 12.57 6.04 12.02 5.7 11.38C5.35 10.75 5.18 10.03 5.18 9.31C5.18 8.49 5.39 7.74 5.77 7.09C7.94 9.76 11.18 11.5 14.83 11.69C14.2 8.71 16.43 6.29 19.11 6.29C20.38 6.29 21.52 6.82 22.32 7.68C23.31 7.49 24.26 7.12 25.11 6.62C24.78 7.64 24.09 8.49 23.18 9.04C24.06 8.94 24.92 8.69 25.71 8.35C25.11 9.23 24.36 10.01 23.51 10.63Z" fill="#000000" fill-opacity="1.000000" fill-rule="nonzero"/>
	</g>
</svg>
