<svg width="28.363647" height="30.000000" viewBox="0 0 28.3636 30" fill="none" xmlns="http://www.w3.org/2000/svg" xmlns:xlink="http://www.w3.org/1999/xlink">
	<rect rx="0.000000" width="27.363636" height="29.000000" transform="translate(0.500000 0.500000)" fill="#FFFFFF" fill-opacity="0"/>
	<g clip-path="url(#clip12_228)">
		<path d="M1.99 -0.01L-0.01 5.14L-0.01 26.19L7.08 26.19L7.08 29.99L11.07 29.99L14.84 26.19L20.6 26.19L28.35 18.35L28.35 -0.01L1.99 -0.01ZM25.7 17.01L21.26 21.49L14.17 21.49L10.41 25.29L10.41 21.49L4.42 21.49L4.42 2.68L25.7 2.68L25.7 17.01ZM21.26 7.83L21.26 15.65L18.61 15.65L18.61 7.83L21.26 7.83ZM14.17 7.83L14.17 15.65L11.52 15.65L11.52 7.83L14.17 7.83Z" fill="#000000" fill-opacity="1.000000" fill-rule="nonzero"/>
	</g>
</svg>
