<svg width="30.000000" height="30.000000" viewBox="0 0 30 30" fill="none" xmlns="http://www.w3.org/2000/svg" xmlns:xlink="http://www.w3.org/1999/xlink">
	<rect rx="0.000000" width="29.000000" height="29.000000" transform="translate(0.500000 0.500000)" fill="#FFFFFF" fill-opacity="0"/>
	<g clip-path="url(#clip12_220)">
		<path d="M23.65 22.38L22.11 22.38L22.11 21.47C22.11 21.07 22.44 20.74 22.84 20.74L22.94 20.74C23.34 20.74 23.67 21.07 23.67 21.47L23.65 22.38ZM17.86 20.44C17.47 20.44 17.15 20.71 17.15 21.03L17.15 25.43C17.15 25.75 17.47 26.02 17.86 26.02C18.25 26.02 18.57 25.75 18.57 25.43L18.57 21.03C18.57 20.71 18.25 20.44 17.86 20.44ZM27.27 17.98L27.27 26.35C27.27 28.35 25.54 30 23.43 30L7.65 30C5.54 30 3.81 28.35 3.81 26.35L3.81 17.98C3.81 15.97 5.54 14.33 7.65 14.33L23.43 14.33C25.54 14.33 27.27 15.97 27.27 17.98ZM8.7 27.25L8.7 18.44L10.66 18.44L10.66 17.14L5.44 17.13L5.44 18.41L7.07 18.42L7.07 27.25L8.7 27.25ZM14.57 19.76L12.94 19.76L12.94 24.46C12.94 25.14 12.98 25.48 12.93 25.6C12.8 25.97 12.2 26.35 11.97 25.64C11.93 25.52 11.97 25.14 11.97 24.49L11.96 19.76L10.34 19.76L10.34 24.42C10.35 25.13 10.33 25.67 10.35 25.91C10.39 26.34 10.38 26.84 10.77 27.12C11.5 27.65 12.91 27.04 13.26 26.28L13.26 27.25L14.57 27.25L14.57 19.76L14.57 19.76ZM19.78 25.14L19.78 21.23C19.78 19.73 18.67 18.84 17.17 20.05L17.17 17.14L15.54 17.14L15.54 27.19L16.88 27.17L17 26.54C18.71 28.13 19.79 27.04 19.78 25.14ZM24.89 24.62L23.67 24.63C23.66 24.68 23.66 24.74 23.66 24.8L23.66 25.49C23.66 25.85 23.36 26.15 22.99 26.15L22.75 26.15C22.39 26.15 22.09 25.85 22.09 25.49L22.09 25.41L22.09 24.65L22.09 23.68L24.89 23.68L24.89 22.62C24.89 21.84 24.87 21.06 24.8 20.62C24.6 19.22 22.65 18.99 21.66 19.71C21.35 19.94 21.11 20.24 20.98 20.64C20.84 21.04 20.77 21.59 20.77 22.3L20.77 24.63C20.77 28.51 25.45 27.96 24.89 24.62ZM18.62 11.95C18.7 12.15 18.83 12.32 19.01 12.45C19.18 12.57 19.41 12.63 19.67 12.63C19.91 12.63 20.12 12.57 20.3 12.44C20.48 12.31 20.63 12.11 20.76 11.85L20.73 12.49L22.54 12.49L22.54 4.7L21.11 4.7L21.11 10.76C21.11 11.09 20.84 11.36 20.52 11.36C20.19 11.36 19.92 11.09 19.92 10.76L19.92 4.7L18.43 4.7L18.43 9.96C18.43 10.63 18.44 11.07 18.46 11.3C18.48 11.52 18.53 11.74 18.62 11.95ZM13.11 7.55C13.11 6.8 13.17 6.21 13.29 5.79C13.42 5.37 13.64 5.04 13.96 4.78C14.28 4.53 14.69 4.4 15.19 4.4C15.61 4.4 15.97 4.48 16.27 4.65C16.58 4.81 16.81 5.02 16.97 5.28C17.14 5.55 17.25 5.82 17.31 6.1C17.37 6.38 17.4 6.8 17.4 7.37L17.4 9.34C17.4 10.06 17.37 10.6 17.31 10.93C17.26 11.27 17.14 11.59 16.96 11.88C16.77 12.17 16.54 12.39 16.26 12.53C15.97 12.67 15.64 12.74 15.27 12.74C14.86 12.74 14.51 12.68 14.22 12.56C13.93 12.44 13.71 12.26 13.55 12.02C13.39 11.78 13.28 11.49 13.21 11.15C13.14 10.8 13.11 10.29 13.11 9.61L13.11 7.55L13.11 7.55ZM14.53 10.64C14.53 11.08 14.86 11.44 15.25 11.44C15.65 11.44 15.97 11.08 15.97 10.64L15.97 6.49C15.97 6.05 15.65 5.69 15.25 5.69C14.86 5.69 14.53 6.05 14.53 6.49L14.53 10.64ZM9.5 12.74L11.21 12.74L11.22 6.76L13.24 1.64L11.37 1.64L10.29 5.44L9.2 1.63L7.34 1.63L9.5 6.76L9.5 12.74Z" fill="#000000" fill-opacity="1.000000" fill-rule="nonzero"/>
	</g>
</svg>
