<svg width="80" height="80" fill="none" xmlns="http://www.w3.org/2000/svg"><defs><clipPath id="a"><rect rx="0" width="79" height="79" transform="translate(.5 .5)" fill="#fff" fill-opacity="0"/></clipPath></defs><rect rx="0" width="79" height="79" transform="translate(.5 .5)"/><g clip-path="url(#a)"><path d="M40 80c-.4 0-.8-.01-1.19-.02l8.17-22.47h11.25c1.98 0 4.14-1.52 4.82-3.37l8.87-24.36c1.45-3.99-.84-7.25-5.08-7.25H51.23L38.14 58.51h-.01l-7.42 20.4C13.1 74.72 0 58.89 0 40 0 21.65 12.35 6.18 29.2 1.47l-7.66 21.06h-.01L8.8 57.51h8.48l10.83-29.73h6.37L23.65 57.51h8.47l10.09-27.73c1.46-3.99-.83-7.25-5.07-7.25h-7.12L38.2.04C38.79.01 39.39 0 40 0c22.09 0 40 17.9 40 40 0 22.09-17.91 40-40 40Zm24.2-52.24h-6.37l-8.92 24.48h6.37l8.92-24.48Z" fill="#000"/></g></svg>